PathFileType	4	(X/Y/Z)	/Users/itak/Documents/Research/Walk-IL/dataset/trc/00583_00009.trc
DataRate	CameraRate	NumFrames	NumMarkers	Units	OrigDataRate	OrigDataStartFrame	OrigNumFrames
100.000000	100.000000	4	53	mm	100.000000	519	594
Frame#	Time	RPSI			LPSI			L3			STRN			T10			C7			CLAV			RBAK			LBAK			LSHO			LUPA			LAEL			LAOL			LWTS			LWPS			LFRA			LIFD			LHPS			LHTS			RSHO			RUPA			RAEL			RAOL			RWTS			RWPS			RFRA			RIFD			RHTS			RHPS			RBHD			LFHD			RFHD			LBHD			LHIP			RHIP			RASI			LASI			LKNE			LTHI			LANK			LTIP			LTOE			LMT1			LMT5			LHEE			RKNE			RTHI			RANK			RTIP			RTOE			RMT1			RMT5			RHEE			
		X1	Y1	Z1	X2	Y2	Z2	X3	Y3	Z3	X4	Y4	Z4	X5	Y5	Z5	X6	Y6	Z6	X7	Y7	Z7	X8	Y8	Z8	X9	Y9	Z9	X10	Y10	Z10	X11	Y11	Z11	X12	Y12	Z12	X13	Y13	Z13	X14	Y14	Z14	X15	Y15	Z15	X16	Y16	Z16	X17	Y17	Z17	X18	Y18	Z18	X19	Y19	Z19	X20	Y20	Z20	X21	Y21	Z21	X22	Y22	Z22	X23	Y23	Z23	X24	Y24	Z24	X25	Y25	Z25	X26	Y26	Z26	X27	Y27	Z27	X28	Y28	Z28	X29	Y29	Z29	X30	Y30	Z30	X31	Y31	Z31	X32	Y32	Z32	X33	Y33	Z33	X34	Y34	Z34	X35	Y35	Z35	X36	Y36	Z36	X37	Y37	Z37	X38	Y38	Z38	X39	Y39	Z39	X40	Y40	Z40	X41	Y41	Z41	X42	Y42	Z42	X43	Y43	Z43	X44	Y44	Z44	X45	Y45	Z45	X46	Y46	Z46	X47	Y47	Z47	X48	Y48	Z48	X49	Y49	Z49	X50	Y50	Z50	X51	Y51	Z51	X52	Y52	Z52	X53	Y53	Z53	

520	5.19	907.318115234375	1018.541564941406	-107.8829040527344	786.6343994140625	1025.56201171875	-164.8673248291016	847.8646850585938	1109.560668945312	-142.5162811279297	939.9454956054688	1300.920043945312	-347.5563049316406	845.732666015625	1234.68798828125	-128.1641998291016	885.22216796875	1508.883422851562	-153.1938171386719	936.3384399414062	1411.875366210938	-323.4559936523438	931.896728515625	1376.676025390625	-63.35762023925781	784.28271484375	1460.09765625	-156.6760101318359	743.8080444335938	1489.806640625	-276.6016540527344	666.204345703125	1364.967163085938	-305.576904296875	661.23779296875	1148.898681640625	-362.1405944824219	671.004150390625	1127.489013671875	-263.6412353515625	757.5781860351562	923.3951416015625	-457.4794616699219	674.766357421875	894.9542846679688	-453.4628295898438	669.568359375	1067.046142578125	-397.5153503417969	764.7844848632812	756.1897583007812	-475.6605529785156	689.0137329101562	837.0933837890625	-467.2158508300781	750.976318359375	849.8959350585938	-492.1295776367188	1047.859375	1466.211669921875	-149.927001953125	1100.670043945312	1399.605590820312	-107.3046951293945	1129.62255859375	1109.355346679688	-86.07533264160156	1080.050537109375	1093.115844726562	-48.90934371948242	1153.67626953125	892.9111328125	-228.8863067626953	1187.905029296875	868.8571166992188	-158.0815734863281	1139.655029296875	1053.919067382812	-92.49009704589844	1143.85791015625	724.4805908203125	-231.0741119384766	1178.38330078125	801.1973266601562	-248.5868530273438	1192.937866210938	795.50341796875	-176.5864715576172	992.8282470703125	1695.188110351562	-220.2724456787109	907.0455322265625	1698.22802734375	-409.5298767089844	1039.563232421875	1693.926879882812	-352.7411193847656	841.492431640625	1697.364868164062	-292.1348571777344	716.3878784179688	944.3179321289062	-333.4656677246094	1065.444091796875	937.5855712890625	-168.2255096435547	1050.367553710938	969.2210693359375	-272.1431884765625	797.9424438476562	966.8348999023438	-384.0221862792969	770.642333984375	496.4194641113281	-311.1559753417969	741.1175537109375	662.3762817382812	-335.6468200683594	732.88134765625	38.08145141601562	-212.8357391357422	734.9910278320312	256.7696228027344	-242.4311218261719	868.9776000976562	39.38776779174805	-383.4962158203125	872.4977416992188	42.73577117919922	-301.85498046875	767.912841796875	38.64796829223633	-329.8700866699219	754.7698974609375	39.92955780029297	-128.4556579589844	1007.272644042969	496.2559509277344	-197.0989379882812	1069.315307617188	782.4313354492188	-201.0984344482422	920.8934936523438	44.21116256713867	-93.4522705078125	983.00830078125	354.2865295410156	-193.3449401855469	970.358154296875	40.29934310913086	-313.1897888183594	909.010986328125	43.94487380981445	-269.8380126953125	993.2628784179688	40.00209045410156	-204.8159790039062	848.7417602539062	41.27648162841797	-66.67743682861328	
521	5.2	906.944580078125	1018.625732421875	-108.2095794677734	786.3099365234375	1025.499633789062	-165.2839965820312	847.481689453125	1109.5263671875	-142.9576721191406	939.62158203125	1300.913940429688	-347.9247436523438	845.2631225585938	1234.703491210938	-128.6918029785156	884.7150268554688	1508.857788085938	-153.5574951171875	935.9398193359375	1411.85888671875	-323.8180541992188	931.3202514648438	1376.626953125	-63.7561149597168	783.8594360351562	1460.075561523438	-157.1217803955078	743.294189453125	1489.752197265625	-277.0283508300781	665.8206176757812	1364.792846679688	-305.9075622558594	660.900634765625	1148.562622070312	-361.8960266113281	670.6610717773438	1127.4677734375	-263.3454895019531	757.1196899414062	922.6002807617188	-456.4337768554688	674.2861938476562	894.2679443359375	-452.3224182128906	669.2405395507812	1066.569213867188	-397.0182189941406	764.14111328125	755.2958374023438	-473.8928527832031	688.459228515625	836.3281860351562	-465.8040161132812	750.420654296875	848.94873046875	-490.7451477050781	1047.335327148438	1466.2451171875	-150.2042846679688	1100.109008789062	1399.5966796875	-107.617073059082	1129.124145507812	1109.272216796875	-87.04180145263672	1079.626586914062	1092.861083984375	-49.8390998840332	1152.93896484375	893.52294921875	-230.8697509765625	1187.296508789062	869.1317749023438	-160.3009948730469	1139.117919921875	1053.830688476562	-93.67552185058594	1143.357543945312	725.1731567382812	-233.8184051513672	1177.64111328125	801.9483642578125	-251.1222534179688	1192.299560546875	795.8699951171875	-179.1775817871094	992.3700561523438	1695.246704101562	-220.4083251953125	906.7247924804688	1698.419189453125	-409.7169494628906	1039.189575195312	1694.085815429688	-352.7911987304688	841.0963745117188	1697.442504882812	-292.458984375	716.3591918945312	944.239990234375	-334.0150146484375	1065.21142578125	937.7119750976562	-168.4441528320312	1050.182861328125	969.3074340820312	-272.3209533691406	797.85107421875	966.7061157226562	-384.4314880371094	770.5740356445312	496.3673400878906	-311.1655883789062	741.0914916992188	662.2581176757812	-335.8992614746094	732.8602294921875	38.03190612792969	-212.8313598632812	734.915283203125	256.74658203125	-242.4450378417969	868.9793090820312	39.37979507446289	-383.4557495117188	872.5020141601562	42.70263671875	-301.8240661621094	767.8991088867188	38.6024169921875	-329.8388366699219	754.734375	39.87655258178711	-128.4278869628906	1007.049072265625	496.3546447753906	-197.0654602050781	1068.995361328125	782.626220703125	-201.5248107910156	920.915771484375	44.23222351074219	-93.46247100830078	982.8900756835938	354.4249267578125	-193.30419921875	970.3529663085938	40.30186080932617	-313.1914367675781	908.99951171875	43.9496955871582	-269.8501281738281	993.2515258789062	40.00906753540039	-204.8316802978516	848.7603149414062	41.3489875793457	-66.65431976318359	
522	5.21	906.5625610351562	1018.699523925781	-108.5484085083008	785.9994506835938	1025.416137695312	-165.7095489501953	847.0865478515625	1109.476806640625	-143.379150390625	939.2953491210938	1300.90478515625	-348.2897644042969	844.776611328125	1234.69140625	-129.2458801269531	884.2134399414062	1508.83349609375	-153.9183654785156	935.523681640625	1411.836547851562	-324.1631774902344	930.7811889648438	1376.577392578125	-64.15782928466797	783.4050903320312	1460.035034179688	-157.5402984619141	742.790771484375	1489.68505859375	-277.4469909667969	665.4146728515625	1364.612182617188	-306.2044067382812	660.5255126953125	1148.212768554688	-361.5905456542969	670.3047485351562	1127.436279296875	-262.9905395507812	756.5866088867188	921.7693481445312	-455.3037109375	673.7398681640625	893.56640625	-451.0923767089844	668.8533325195312	1066.072387695312	-396.4576721191406	763.4098510742188	754.3674926757812	-471.9990844726562	687.8167724609375	835.5372924804688	-464.2775573730469	749.78515625	847.9580688476562	-489.2602233886719	1046.826538085938	1466.279663085938	-150.4990844726562	1099.561157226562	1399.583984375	-107.9487686157227	1128.652099609375	1109.200805664062	-87.98902893066406	1079.228515625	1092.62109375	-50.72555160522461	1152.176635742188	894.1205444335938	-232.8027191162109	1186.68603515625	869.4087524414062	-162.4811553955078	1138.61962890625	1053.7607421875	-94.85833740234375	1142.810668945312	725.8451538085938	-236.5016174316406	1176.85107421875	802.6784057617188	-253.5944366455078	1191.633666992188	796.2291870117188	-181.7012023925781	991.8900146484375	1695.301025390625	-220.5476226806641	906.3929443359375	1698.578125	-409.9050598144531	1038.803466796875	1694.238403320312	-352.8408813476562	840.68505859375	1697.509521484375	-292.7767944335938	716.33544921875	944.1585083007812	-334.5708312988281	1064.942138671875	937.8162841796875	-168.6252593994141	1049.993896484375	969.3847045898438	-272.4845275878906	797.7726440429688	966.566650390625	-384.8451538085938	770.4996337890625	496.3173217773438	-311.16552734375	741.0454711914062	662.1375732421875	-336.1285705566406	732.8329467773438	37.97264099121094	-212.8249053955078	734.8203735351562	256.7190856933594	-242.4609985351562	868.9700927734375	39.36723327636719	-383.4041442871094	872.5045166015625	42.67031097412109	-301.7911682128906	767.8880615234375	38.56148147583008	-329.8071594238281	754.691162109375	39.81748962402344	-128.3904113769531	1006.828735351562	496.4378051757812	-197.0524444580078	1068.70654296875	782.8346557617188	-201.9088287353516	920.9421997070312	44.24503326416016	-93.46817779541016	982.7647705078125	354.5536193847656	-193.2671203613281	970.3468017578125	40.3053092956543	-313.1950378417969	908.980224609375	43.94931793212891	-269.8649597167969	993.2357788085938	40.01268005371094	-204.8465728759766	848.7675170898438	41.39104461669922	-66.63844299316406	
523	5.22	906.1884155273438	1018.754455566406	-108.8984603881836	785.707275390625	1025.315673828125	-166.1521453857422	846.6793823242188	1109.415405273438	-143.7787475585938	938.9659423828125	1300.888793945312	-348.6536865234375	844.2853393554688	1234.64599609375	-129.8035736083984	883.7106323242188	1508.806274414062	-154.2765655517578	935.0922241210938	1411.804443359375	-324.4975891113281	930.28466796875	1376.524536132812	-64.55686950683594	782.9244384765625	1459.971435546875	-157.9361267089844	742.297607421875	1489.6025390625	-277.8576354980469	664.9835815429688	1364.421508789062	-306.46240234375	660.1202392578125	1147.848999023438	-361.2371520996094	669.9407348632812	1127.393432617188	-262.5877685546875	755.9822387695312	920.902099609375	-454.0940246582031	673.1231689453125	892.84716796875	-449.7773132324219	668.4022827148438	1065.5537109375	-395.8398742675781	762.5980224609375	753.406982421875	-469.99609375	687.0875854492188	834.7207641601562	-462.6461181640625	749.0726928710938	846.9234619140625	-487.6835021972656	1046.331665039062	1466.310791015625	-150.8112030029297	1099.025512695312	1399.562133789062	-108.2961273193359	1128.205810546875	1109.134643554688	-88.90614318847656	1078.85546875	1092.38671875	-51.55467224121094	1151.397338867188	894.7063598632812	-234.6851959228516	1186.076416015625	869.684814453125	-164.6144714355469	1138.160034179688	1053.705932617188	-96.02651214599609	1142.233154296875	726.5015258789062	-239.1309051513672	1176.027954101562	803.3916625976562	-256.0087890625	1190.950927734375	796.5802612304688	-184.1578063964844	991.3828735351562	1695.338745117188	-220.6873168945312	906.0523071289062	1698.708862304688	-410.0953369140625	1038.4052734375	1694.385009765625	-352.8893432617188	840.2507934570312	1697.557861328125	-293.0800476074219	716.3176879882812	944.0687866210938	-335.1269226074219	1064.635620117188	937.8947143554688	-168.7673492431641	1049.805786132812	969.4503784179688	-272.6421508789062	797.7042236328125	966.413818359375	-385.2674560546875	770.4183959960938	496.2669372558594	-311.1584167480469	740.9825439453125	662.014892578125	-336.3397216796875	732.8019409179688	37.90605926513672	-212.8171691894531	734.7078857421875	256.6869201660156	-242.4764709472656	868.9576416015625	39.35369491577148	-383.3477172851562	872.5067138671875	42.63997650146484	-301.7586059570312	767.8832397460938	38.53070449829102	-329.7769775390625	754.6432495117188	39.75868988037109	-128.3446197509766	1006.612609863281	496.5010986328125	-197.054931640625	1068.4765625	783.0424194335938	-202.2005157470703	920.9683837890625	44.24951553344727	-93.46968841552734	982.6278686523438	354.6640930175781	-193.23388671875	970.339599609375	40.30980682373047	-313.200439453125	908.9546508789062	43.94476699829102	-269.8811340332031	993.21533203125	40.01439666748047	-204.8597259521484	848.7600708007812	41.39287567138672	-66.63624572753906	
